<svg width="300" height="300" viewBox="0 0 300 300" fill="none" xmlns="http://www.w3.org/2000/svg">
<path fill-rule="evenodd" clip-rule="evenodd" d="M223.697 223.134C201.985 233.841 176.791 240 149.703 240C122.614 240 97.4203 233.841 75.7087 223.134C63.6032 201.498 56.7028 176.555 56.7028 150C56.7028 140.437 57.5976 131.084 59.3081 122.018C68.4343 128.267 78.2057 133.568 88.4734 137.821C107.886 145.861 128.691 150 149.703 150C170.714 150 191.52 145.861 210.932 137.821C221.2 133.568 230.971 128.267 240.097 122.018C241.808 131.084 242.703 140.437 242.703 150C242.703 176.555 235.802 201.498 223.697 223.134ZM214.025 238.227C194.341 245.798 172.583 250 149.703 250C126.823 250 105.064 245.798 85.3803 238.227C101.618 260.517 123.848 278.161 149.703 288.791C175.558 278.161 197.788 260.517 214.025 238.227ZM60.151 214.308C51.503 194.628 46.7028 172.874 46.7028 150C46.7028 138.149 47.9911 126.6 50.4355 115.483C45.5868 111.647 40.9549 107.526 36.5657 103.137C29.3563 95.9277 22.8702 88.0635 17.1842 79.6595C9.22754 94.6185 3.7296 111.084 1.22949 128.518C6.99556 163.239 28.7273 193.956 60.151 214.308ZM0 159.52C12.9567 189.493 37.3333 214.557 68.4846 230.648C84.3109 257.713 107.86 279.713 136.108 293.624C131.239 295.093 126.266 296.322 121.203 297.296C55.0174 284.566 4.30988 228.334 0 159.52ZM230.921 230.648C262.072 214.557 286.449 189.493 299.406 159.52C295.096 228.334 244.388 284.566 178.203 297.296C173.139 296.322 168.166 295.093 163.297 293.624C191.546 279.713 215.095 257.713 230.921 230.648ZM298.176 128.518C292.41 163.239 270.678 193.956 239.255 214.308C247.903 194.628 252.703 172.875 252.703 150C252.703 138.149 251.414 126.6 248.97 115.483C253.819 111.647 258.451 107.526 262.84 103.137C270.049 95.9277 276.535 88.0635 282.221 79.6596C290.178 94.6185 295.676 111.084 298.176 128.518ZM178.203 2.70405C219.56 10.6589 254.874 35.5995 276.6 69.9818C270.662 79.4023 263.68 88.1547 255.769 96.066C252.712 99.1225 249.53 102.04 246.233 104.813C233.532 61.5892 203.074 25.964 163.297 6.37598C168.166 4.90661 173.139 3.67801 178.203 2.70405ZM136.108 6.37598C96.3319 25.964 65.8739 61.5892 53.1727 104.813C49.8752 102.04 46.6932 99.1225 43.6367 96.066C35.7254 88.1547 28.7431 79.4023 22.8055 69.9818C44.5316 35.5995 79.8454 10.6589 121.203 2.70405C126.266 3.67801 131.239 4.9066 136.108 6.37598ZM149.703 11.2094C106.729 28.8772 73.7682 65.9232 61.6974 111.47C71.1724 118.335 81.4402 124.084 92.3002 128.582C110.499 136.12 130.004 140 149.703 140C169.401 140 188.906 136.12 207.105 128.582C217.965 124.084 228.233 118.335 237.708 111.47C225.637 65.9233 192.677 28.8772 149.703 11.2094ZM149.703 0.451241C150.097 0.300838 150.492 0.151951 150.888 0.00458527C150.493 0.00152969 150.098 0 149.703 0C149.307 0 148.912 0.0015316 148.517 0.00458717C148.913 0.151951 149.308 0.300838 149.703 0.451241ZM149.703 299.549C149.882 299.617 150.062 299.685 150.242 299.753C150.457 299.834 150.672 299.915 150.888 299.995C150.493 299.998 150.098 300 149.703 300C149.307 300 148.912 299.998 148.517 299.995C148.913 299.848 149.308 299.699 149.703 299.549Z" fill="#365486"/>
</svg>
