<svg width="1535" height="340" viewBox="0 0 1535 340" fill="none" xmlns="http://www.w3.org/2000/svg">
<path fill-rule="evenodd" clip-rule="evenodd" d="M243.697 243.134C221.985 253.841 196.791 260 169.703 260C142.614 260 117.42 253.841 95.7087 243.134C83.6032 221.498 76.7028 196.555 76.7028 170C76.7028 160.437 77.5976 151.084 79.3081 142.018C88.4343 148.267 98.2057 153.568 108.473 157.821C127.886 165.861 148.691 170 169.703 170C190.714 170 211.52 165.861 230.932 157.821C241.2 153.568 250.971 148.267 260.097 142.018C261.808 151.084 262.703 160.437 262.703 170C262.703 196.555 255.802 221.498 243.697 243.134ZM234.025 258.227C214.341 265.798 192.583 270 169.703 270C146.823 270 125.064 265.798 105.38 258.227C121.618 280.517 143.848 298.161 169.703 308.791C195.558 298.161 217.788 280.517 234.025 258.227ZM80.151 234.308C71.503 214.628 66.7028 192.874 66.7028 170C66.7028 158.149 67.9911 146.6 70.4355 135.483C65.5868 131.647 60.9549 127.526 56.5657 123.137C49.3563 115.928 42.8702 108.063 37.1842 99.6595C29.2275 114.618 23.7296 131.084 21.2295 148.518C26.9956 183.239 48.7273 213.956 80.151 234.308ZM20 179.52C32.9567 209.493 57.3333 234.557 88.4846 250.648C104.311 277.713 127.86 299.713 156.108 313.624C151.239 315.093 146.266 316.322 141.203 317.296C75.0174 304.566 24.3099 248.334 20 179.52ZM250.921 250.648C282.072 234.557 306.449 209.493 319.406 179.52C315.096 248.334 264.388 304.566 198.203 317.296C193.139 316.322 188.166 315.093 183.297 313.624C211.546 299.713 235.095 277.713 250.921 250.648ZM318.176 148.518C312.41 183.239 290.678 213.956 259.255 234.308C267.903 214.628 272.703 192.875 272.703 170C272.703 158.149 271.414 146.6 268.97 135.483C273.819 131.647 278.451 127.526 282.84 123.137C290.049 115.928 296.535 108.063 302.221 99.6596C310.178 114.618 315.676 131.084 318.176 148.518ZM198.203 22.7041C239.56 30.6589 274.874 55.5995 296.6 89.9818C290.662 99.4023 283.68 108.155 275.769 116.066C272.712 119.122 269.53 122.04 266.233 124.813C253.532 81.5892 223.074 45.964 183.297 26.376C188.166 24.9066 193.139 23.678 198.203 22.7041ZM156.108 26.376C116.332 45.964 85.8739 81.5892 73.1727 124.813C69.8752 122.04 66.6932 119.122 63.6367 116.066C55.7254 108.155 48.7431 99.4023 42.8055 89.9818C64.5316 55.5995 99.8454 30.6589 141.203 22.7041C146.266 23.678 151.239 24.9066 156.108 26.376ZM169.703 31.2094C126.729 48.8772 93.7682 85.9232 81.6974 131.47C91.1724 138.335 101.44 144.084 112.3 148.582C130.499 156.12 150.004 160 169.703 160C189.401 160 208.906 156.12 227.105 148.582C237.965 144.084 248.233 138.335 257.708 131.47C245.637 85.9233 212.677 48.8772 169.703 31.2094ZM169.703 20.4512C170.097 20.3008 170.492 20.152 170.888 20.0046C170.493 20.0015 170.098 20 169.703 20C169.307 20 168.912 20.0015 168.517 20.0046C168.913 20.152 169.308 20.3008 169.703 20.4512ZM169.703 319.549C169.882 319.617 170.062 319.685 170.242 319.753C170.457 319.834 170.672 319.915 170.888 319.995C170.493 319.998 170.098 320 169.703 320C169.307 320 168.912 319.998 168.517 319.995C168.913 319.848 169.308 319.699 169.703 319.549Z"/>
<path d="M353.333 113.522H376.551L418.152 155.271L459.754 113.522H482.972V228H459.754V145.676L418.152 185.739L376.551 145.676V228H353.333V113.522ZM508.753 200.754C508.753 196.604 509.656 192.819 511.463 189.401C513.27 185.983 515.979 183.054 519.593 180.612C523.206 178.122 527.698 176.218 533.069 174.899C538.489 173.532 544.788 172.849 551.966 172.849C557.288 172.849 562.879 173.239 568.738 174.021C574.646 174.802 580.726 175.998 586.976 177.609C586.731 174.875 585.901 172.36 584.485 170.065C583.069 167.722 581.092 165.72 578.553 164.06C576.062 162.351 573.035 161.032 569.471 160.104C565.955 159.177 561.951 158.713 557.459 158.713C555.018 158.713 552.332 158.859 549.402 159.152C546.473 159.445 543.445 159.885 540.32 160.471C537.195 161.057 534.095 161.789 531.019 162.668C527.991 163.547 525.159 164.597 522.522 165.817L515.931 148.02C519.202 146.848 522.693 145.773 526.404 144.797C530.164 143.82 533.997 142.99 537.903 142.307C541.81 141.574 545.716 141.013 549.622 140.622C553.528 140.231 557.312 140.036 560.975 140.036C577.137 140.036 589.148 144.162 597.01 152.414C604.871 160.666 608.802 173.312 608.802 190.354V228H587.122V219.87C584.876 221.188 582.41 222.434 579.725 223.605C577.088 224.777 574.207 225.803 571.082 226.682C567.957 227.561 564.588 228.244 560.975 228.732C557.41 229.27 553.626 229.538 549.622 229.538C542.884 229.538 536.951 228.806 531.824 227.341C526.746 225.876 522.498 223.85 519.08 221.262C515.662 218.674 513.074 215.646 511.316 212.18C509.607 208.664 508.753 204.855 508.753 200.754ZM531.604 200.021C531.604 201.438 531.971 202.805 532.703 204.123C533.436 205.393 534.607 206.54 536.219 207.565C537.83 208.542 539.881 209.348 542.371 209.982C544.91 210.568 547.962 210.861 551.526 210.861C555.335 210.861 559.021 210.52 562.586 209.836C566.15 209.152 569.471 208.249 572.547 207.126C575.623 206.003 578.406 204.709 580.896 203.244C583.387 201.779 585.462 200.266 587.122 198.703V194.895C583.802 193.967 580.506 193.186 577.234 192.551C574.012 191.916 570.911 191.428 567.933 191.086C565.003 190.695 562.22 190.427 559.583 190.28C556.995 190.134 554.725 190.061 552.771 190.061C548.719 190.061 545.35 190.329 542.664 190.866C539.979 191.403 537.806 192.136 536.146 193.063C534.485 193.942 533.313 194.992 532.63 196.213C531.946 197.434 531.604 198.703 531.604 200.021ZM625.574 141.501H650.696L673.182 193.503L679.041 208.078L684.9 193.503L707.386 141.501H732.508L691.565 228H666.517L625.574 141.501ZM750.379 113.522H773.597V207.639H840.174V228H750.379V113.522ZM854.822 184.787C854.822 178.586 856.067 172.775 858.558 167.355C861.097 161.936 864.686 157.199 869.324 153.146C874.012 149.094 879.651 145.896 886.243 143.552C892.884 141.208 900.33 140.036 908.582 140.036C916.834 140.036 924.256 141.208 930.848 143.552C937.488 145.896 943.128 149.094 947.767 153.146C952.454 157.199 956.043 161.936 958.533 167.355C961.072 172.775 962.342 178.586 962.342 184.787C962.342 190.988 961.072 196.799 958.533 202.219C956.043 207.639 952.454 212.375 947.767 216.428C943.128 220.48 937.488 223.679 930.848 226.022C924.256 228.366 916.834 229.538 908.582 229.538C900.33 229.538 892.884 228.366 886.243 226.022C879.651 223.679 874.012 220.48 869.324 216.428C864.686 212.375 861.097 207.639 858.558 202.219C856.067 196.799 854.822 190.988 854.822 184.787ZM877.601 184.787C877.601 188.254 878.284 191.55 879.651 194.675C881.067 197.751 883.094 200.485 885.73 202.878C888.416 205.222 891.663 207.102 895.472 208.518C899.329 209.885 903.699 210.568 908.582 210.568C913.465 210.568 917.811 209.885 921.619 208.518C925.477 207.102 928.724 205.222 931.36 202.878C934.046 200.485 936.072 197.751 937.439 194.675C938.855 191.55 939.563 188.254 939.563 184.787C939.563 181.32 938.855 178.024 937.439 174.899C936.072 171.774 934.046 169.04 931.36 166.696C928.724 164.304 925.477 162.424 921.619 161.057C917.811 159.641 913.465 158.933 908.582 158.933C903.699 158.933 899.329 159.641 895.472 161.057C891.663 162.424 888.416 164.304 885.73 166.696C883.094 169.04 881.067 171.774 879.651 174.899C878.284 178.024 877.601 181.32 877.601 184.787ZM997.791 242.648C1000.53 243.625 1003.31 244.431 1006.14 245.065C1008.97 245.749 1011.71 246.286 1014.34 246.677C1017.03 247.116 1019.59 247.409 1022.03 247.556C1024.48 247.751 1026.65 247.849 1028.55 247.849C1034.31 247.849 1039.32 247.141 1043.57 245.725C1047.86 244.357 1051.43 242.502 1054.26 240.158C1057.14 237.814 1059.29 235.08 1060.71 231.955C1062.12 228.879 1062.83 225.607 1062.83 222.141V218.405C1060.97 219.675 1058.8 220.896 1056.31 222.067C1053.82 223.239 1051.09 224.265 1048.11 225.144C1045.13 226.022 1041.96 226.73 1038.59 227.268C1035.27 227.805 1031.82 228.073 1028.26 228.073C1021.18 228.073 1014.64 227.023 1008.63 224.924C1002.62 222.775 997.425 219.797 993.03 215.988C988.636 212.131 985.193 207.517 982.703 202.146C980.262 196.774 979.041 190.817 979.041 184.274C979.041 177.585 980.335 171.53 982.923 166.11C985.511 160.642 989.075 155.979 993.616 152.121C998.206 148.264 1003.63 145.285 1009.88 143.186C1016.13 141.086 1022.91 140.036 1030.24 140.036C1033.36 140.036 1036.46 140.231 1039.54 140.622C1042.62 141.013 1045.54 141.55 1048.33 142.233C1051.16 142.917 1053.8 143.747 1056.24 144.724C1058.73 145.651 1060.93 146.677 1062.83 147.8V141.574H1084.51V218.112C1084.51 225.974 1083.31 232.932 1080.92 238.986C1078.53 245.041 1075.01 250.119 1070.37 254.221C1065.78 258.371 1060.07 261.496 1053.24 263.596C1046.4 265.744 1038.56 266.818 1029.72 266.818C1026.55 266.818 1023.25 266.672 1019.84 266.379C1016.42 266.135 1012.98 265.744 1009.51 265.207C1006.09 264.719 1002.7 264.108 999.329 263.376C996.009 262.692 992.811 261.887 989.734 260.959L997.791 242.648ZM1001.82 184.055C1001.82 187.521 1002.5 190.793 1003.87 193.869C1005.29 196.896 1007.29 199.558 1009.88 201.853C1012.46 204.099 1015.59 205.881 1019.25 207.199C1022.91 208.469 1027.04 209.104 1031.63 209.104C1034.61 209.104 1037.56 208.835 1040.49 208.298C1043.47 207.712 1046.3 206.906 1048.99 205.881C1051.72 204.855 1054.26 203.61 1056.6 202.146C1059 200.681 1061.07 199.045 1062.83 197.238V168.747C1060.63 166.989 1058.31 165.5 1055.87 164.279C1053.43 163.059 1050.94 162.058 1048.4 161.276C1045.86 160.495 1043.3 159.934 1040.71 159.592C1038.12 159.201 1035.61 159.006 1033.17 159.006C1028.19 159.006 1023.74 159.665 1019.84 160.983C1015.98 162.302 1012.71 164.108 1010.02 166.403C1007.39 168.649 1005.36 171.286 1003.94 174.313C1002.53 177.341 1001.82 180.588 1001.82 184.055ZM1120.62 129.782C1118.47 129.782 1116.52 129.489 1114.76 128.903C1113.05 128.269 1111.58 127.438 1110.36 126.413C1109.14 125.339 1108.19 124.118 1107.51 122.751C1106.87 121.335 1106.56 119.846 1106.56 118.283C1106.56 116.672 1106.87 115.183 1107.51 113.815C1108.19 112.399 1109.14 111.179 1110.36 110.153C1111.58 109.128 1113.05 108.322 1114.76 107.736C1116.52 107.102 1118.47 106.784 1120.62 106.784C1122.82 106.784 1124.77 107.102 1126.48 107.736C1128.24 108.322 1129.72 109.128 1130.95 110.153C1132.17 111.179 1133.09 112.399 1133.73 113.815C1134.41 115.183 1134.75 116.672 1134.75 118.283C1134.75 119.846 1134.41 121.335 1133.73 122.751C1133.09 124.118 1132.17 125.339 1130.95 126.413C1129.72 127.438 1128.24 128.269 1126.48 128.903C1124.77 129.489 1122.82 129.782 1120.62 129.782ZM1109.78 141.574H1131.46V228H1109.78V141.574ZM1162.73 201.486C1168.59 205.002 1175.04 207.59 1182.07 209.25C1189.1 210.91 1196.3 211.74 1203.67 211.74C1208.66 211.74 1212.81 211.398 1216.13 210.715C1219.45 210.031 1222.11 209.152 1224.11 208.078C1226.11 207.004 1227.53 205.783 1228.36 204.416C1229.19 203.049 1229.6 201.657 1229.6 200.241C1229.6 198.19 1228.7 196.433 1226.89 194.968C1225.13 193.503 1222.21 192.771 1218.1 192.771C1216.2 192.771 1214.15 192.893 1211.95 193.137C1209.75 193.381 1207.43 193.649 1204.99 193.942C1202.6 194.187 1200.09 194.431 1197.45 194.675C1194.86 194.919 1192.22 195.041 1189.54 195.041C1183.68 195.041 1178.67 194.406 1174.52 193.137C1170.42 191.867 1167.08 190.134 1164.49 187.937C1161.9 185.739 1160.02 183.151 1158.85 180.173C1157.68 177.146 1157.09 173.898 1157.09 170.432C1157.09 166.037 1158.12 161.984 1160.17 158.273C1162.22 154.562 1165.15 151.364 1168.96 148.679C1172.77 145.944 1177.36 143.82 1182.73 142.307C1188.15 140.793 1194.18 140.036 1200.82 140.036C1204.29 140.036 1207.9 140.256 1211.66 140.695C1215.47 141.086 1219.2 141.623 1222.86 142.307C1226.53 142.99 1230.04 143.796 1233.41 144.724C1236.78 145.603 1239.76 146.555 1242.35 147.58L1235.54 164.426C1230.02 162.375 1224.5 160.764 1218.98 159.592C1213.51 158.371 1207.87 157.761 1202.06 157.761C1198.01 157.761 1194.57 158.078 1191.74 158.713C1188.95 159.299 1186.68 160.104 1184.92 161.13C1183.17 162.106 1181.87 163.254 1181.04 164.572C1180.26 165.842 1179.87 167.185 1179.87 168.601C1179.87 169.626 1180.07 170.554 1180.46 171.384C1180.9 172.214 1181.58 172.946 1182.51 173.581C1183.48 174.167 1184.73 174.631 1186.24 174.973C1187.81 175.266 1189.71 175.412 1191.96 175.412C1194.01 175.412 1196.18 175.29 1198.47 175.046C1200.77 174.802 1203.16 174.558 1205.65 174.313C1208.14 174.021 1210.71 173.752 1213.34 173.508C1216.03 173.264 1218.76 173.142 1221.55 173.142C1226.72 173.142 1231.24 173.752 1235.1 174.973C1239 176.193 1242.22 177.902 1244.76 180.1C1247.3 182.297 1249.21 184.885 1250.48 187.863C1251.75 190.842 1252.38 194.089 1252.38 197.604C1252.38 202.146 1251.33 206.369 1249.23 210.275C1247.13 214.182 1244.01 217.575 1239.86 220.456C1235.71 223.288 1230.53 225.51 1224.33 227.121C1218.18 228.732 1211.05 229.538 1202.94 229.538C1197.96 229.538 1193.15 229.221 1188.51 228.586C1183.88 228 1179.46 227.194 1175.26 226.169C1171.06 225.095 1167.1 223.85 1163.39 222.434C1159.73 221.018 1156.38 219.504 1153.36 217.893L1162.73 201.486ZM1284.97 157.834H1264.1V141.574H1284.97V114.694H1306.65V141.574H1327.53V157.834H1306.65V228H1284.97V157.834ZM1358.22 129.782C1356.07 129.782 1354.11 129.489 1352.36 128.903C1350.65 128.269 1349.18 127.438 1347.96 126.413C1346.74 125.339 1345.79 124.118 1345.11 122.751C1344.47 121.335 1344.15 119.846 1344.15 118.283C1344.15 116.672 1344.47 115.183 1345.11 113.815C1345.79 112.399 1346.74 111.179 1347.96 110.153C1349.18 109.128 1350.65 108.322 1352.36 107.736C1354.11 107.102 1356.07 106.784 1358.22 106.784C1360.41 106.784 1362.37 107.102 1364.08 107.736C1365.83 108.322 1367.32 109.128 1368.54 110.153C1369.76 111.179 1370.69 112.399 1371.33 113.815C1372.01 115.183 1372.35 116.672 1372.35 118.283C1372.35 119.846 1372.01 121.335 1371.33 122.751C1370.69 124.118 1369.76 125.339 1368.54 126.413C1367.32 127.438 1365.83 128.269 1364.08 128.903C1362.37 129.489 1360.41 129.782 1358.22 129.782ZM1347.38 141.574H1369.06V228H1347.38V141.574ZM1391.69 185.007C1391.69 178.659 1392.83 172.751 1395.13 167.282C1397.47 161.765 1400.87 157.004 1405.31 153C1409.8 148.947 1415.27 145.773 1421.72 143.479C1428.21 141.184 1435.61 140.036 1443.91 140.036C1447.52 140.036 1451.16 140.256 1454.82 140.695C1458.48 141.135 1462 141.77 1465.37 142.6C1468.79 143.381 1471.99 144.333 1474.96 145.456C1477.94 146.53 1480.53 147.727 1482.73 149.045L1472.69 165.378C1467.96 163.181 1463.46 161.569 1459.22 160.544C1455.02 159.519 1450.75 159.006 1446.4 159.006C1441.42 159.006 1436.95 159.665 1433 160.983C1429.04 162.253 1425.67 164.06 1422.89 166.403C1420.15 168.698 1418.05 171.433 1416.59 174.606C1415.17 177.731 1414.47 181.149 1414.47 184.86C1414.47 188.571 1415.22 192.014 1416.74 195.188C1418.3 198.312 1420.47 201.022 1423.25 203.317C1426.09 205.563 1429.48 207.346 1433.44 208.664C1437.44 209.934 1441.88 210.568 1446.77 210.568C1452.14 210.568 1457.19 209.812 1461.93 208.298C1466.71 206.784 1471.16 204.758 1475.26 202.219L1485.29 218.552C1482.7 220.114 1479.9 221.579 1476.87 222.946C1473.84 224.265 1470.59 225.412 1467.13 226.389C1463.71 227.365 1460.1 228.122 1456.29 228.659C1452.53 229.245 1448.62 229.538 1444.57 229.538C1436.32 229.538 1428.92 228.415 1422.38 226.169C1415.83 223.923 1410.29 220.822 1405.75 216.867C1401.21 212.863 1397.72 208.151 1395.28 202.731C1392.88 197.312 1391.69 191.403 1391.69 185.007Z"/>
</svg>
